# xmcd
#
# Track frame offsets:
#	150
#	13910
#	28481
#	40979
#	54861
#	68936
#	82531
#	93811
#	106745
#	120351
#	134472
#	149176
#	161867
#	174918
#	189263
#	203961
#	217515
#	232248
#	245382
#	258878
#
# Disc length: 3651 seconds
#
# Revision: 0
# Processed by: cddbd v1.5.1PL0 Copyright (c) Steve Scherf et al.
# Submitted via: EasyCDDAExtractor 5.0.0.0
#
DISCID=0e0e4114
DTITLE=Billie Holiday - Most Famous Hits. The Album CD 1
DYEAR=1900
DGENRE=
TTITLE0=The Man I Love
TTITLE1=Fine And Mellow
TTITLE2=Sugar
TTITLE3=Billies Blues
TTITLE4=Carelessly
TTITLE5=On The Sunny Side Of The Street
TTITLE6=How Cloud You
TTITLE7=I've Got The Right To Sing The Blues
TTITLE8=The Mood That I'm In
TTITLE9=That's Life I Guess
TTITLE10=Embraceable You
TTITLE11=A Sunbonnet Blue
TTITLE12=What A Night, What A Moon, What A Boy
TTITLE13=Nice Work If You Can Get It
TTITLE14=Pennies From Heaven
TTITLE15=You Showed Me The Way
TTITLE16=Georgia On My Mind
TTITLE17=God Bless The Child
TTITLE18=All Of Me
TTITLE19=Lover Come Back To Me
EXTD=
EXTT0=
EXTT1=
EXTT2=
EXTT3=
EXTT4=
EXTT5=
EXTT6=
EXTT7=
EXTT8=
EXTT9=
EXTT10=
EXTT11=
EXTT12=
EXTT13=
EXTT14=
EXTT15=
EXTT16=
EXTT17=
EXTT18=
EXTT19=
PLAYORDER=
